<?xml version="1.0" standalone="no"?><!DOCTYPE svg PUBLIC "-//W3C//DTD SVG 1.1//EN" "http://www.w3.org/Graphics/SVG/1.1/DTD/svg11.dtd"><svg t="1604025294825" class="icon" viewBox="0 0 1024 1024" version="1.1" xmlns="http://www.w3.org/2000/svg" p-id="91608" xmlns:xlink="http://www.w3.org/1999/xlink" width="200" height="200"><defs><style type="text/css"></style></defs><path d="M988.689834 427.14416L566.759147 21.107665a81.474428 81.474428 0 0 0-109.433959 0l-422.064252 406.036495a40.737214 40.737214 0 1 0 54.672458 60.549302l422.064252-406.036495 422.064252 406.036495a40.737214 40.737214 0 1 0 54.672458-60.549302z m-112.684031 150.616389a40.781736 40.781736 0 0 0-40.826258 40.826257v314.099504h-162.147469v-272.160208c0-45.144847-36.507667-81.652515-81.652514-81.652514H432.61573c-45.144847 0-81.652515 36.507667-81.652514 81.652514v272.160208H188.815747v-314.099504a40.781736 40.781736 0 1 0-81.652515 0v314.099504c0 45.100326 36.507667 81.607993 81.652515 81.607993H835.224067c45.100326 0 81.652515-36.507667 81.652514-81.607993v-314.099504a40.781736 40.781736 0 0 0-40.826257-40.826257z m-443.390073 82.765553h158.763832v272.160208H432.61573v-272.160208z" fill="#3F80F9" p-id="91609"></path></svg>